<svg xmlns="http://www.w3.org/2000/svg" viewBox="0 0 320 320" width="320" height="320">
  <defs>
    <radialGradient id="bodyL" cx="40%" cy="35%" r="85%">
      <stop offset="0%" stop-color="#FFD3A8"/>
      <stop offset="60%" stop-color="#FFA978"/>
      <stop offset="100%" stop-color="#EE8A57"/>
    </radialGradient>
  </defs>
  <path d="M62 170 Q98 138 148 156 Q172 188 150 228 Q100 238 62 204 Z" fill="#E89366" opacity="0.28"/>
  <ellipse cx="168" cy="182" rx="82" ry="78" fill="url(#bodyL)"/>
  <path d="M120 178 Q144 150 196 162 Q220 190 184 230 Q138 232 120 178 Z" fill="#E89366" opacity="0.68"/>
  <path d="M188 140 Q228 110 278 132 Q300 174 272 220 Q222 232 188 190 Z" fill="#E89366" opacity="0.92"/>
  <path d="M246 186 L284 202 L246 220 Z" fill="#FFB04A"/>
  <circle cx="196" cy="150" r="9" fill="#3A2418"/>
  <circle cx="199" cy="147" r="2.5" fill="#FFFFFF"/>
  <path d="M232 149 Q243 140 254 149" fill="none" stroke="#3A2418" stroke-width="7" stroke-linecap="round"/>
  <path d="M212 188 Q222 198 232 188" fill="none" stroke="#8B4E2E" stroke-width="5" stroke-linecap="round"/>
</svg>
